<svg width="24" height="24" viewBox="0 0 24 24" fill="none" xmlns="http://www.w3.org/2000/svg">
  <path
    d="M7.75689 6.69666C7.464 6.40377 6.98913 6.40377 6.69623 6.69666C6.40334 6.98955 6.40334 7.46443 6.69623 7.75732L10.9389 12L6.69629 16.2426C6.4034 16.5355 6.4034 17.0104 6.69629 17.3033C6.98918 17.5962 7.46406 17.5962 7.75695 17.3033L11.9996 13.0606L16.2422 17.3033C16.5351 17.5962 17.0099 17.5962 17.3028 17.3033C17.5957 17.0104 17.5957 16.5355 17.3028 16.2426L13.0602 12L17.3029 7.75732C17.5958 7.46443 17.5958 6.98955 17.3029 6.69666C17.01 6.40377 16.5351 6.40377 16.2422 6.69666L11.9996 10.9393L7.75689 6.69666Z"
    fill="#FCFCFD" />
</svg>