<svg width="32" height="32" viewBox="0 0 32 32" fill="none" xmlns="http://www.w3.org/2000/svg">
<path  d="M22.2612 10.1583C22.2562 10.1486 22.2479 10.141 22.2378 10.1368C21.0708 9.60139 19.8392 9.21957 18.5739 9.00094C18.5624 8.9988 18.5506 9.00034 18.54 9.00534C18.5294 9.01034 18.5207 9.01855 18.5151 9.02879C18.3474 9.33317 18.1951 9.64581 18.059 9.96553C16.6951 9.75849 15.3077 9.75849 13.9439 9.96553C13.8068 9.645 13.6521 9.33228 13.4805 9.02879C13.4747 9.01877 13.4659 9.01076 13.4554 9.00579C13.4449 9.00082 13.4331 8.99913 13.4216 9.00094C12.1562 9.21911 10.9246 9.60096 9.75771 10.1369C9.74772 10.1411 9.73929 10.1483 9.73359 10.1576C7.40004 13.6424 6.76079 17.0416 7.07438 20.3986C7.07527 20.4069 7.07779 20.4148 7.08182 20.4221C7.08584 20.4293 7.09128 20.4357 7.0978 20.4407C8.45661 21.4468 9.97645 22.2148 11.5925 22.7118C11.6038 22.7153 11.616 22.7151 11.6273 22.7114C11.6386 22.7077 11.6485 22.7006 11.6556 22.6911C12.0027 22.2189 12.3102 21.7188 12.5751 21.196C12.5788 21.1888 12.5808 21.1809 12.5812 21.1729C12.5816 21.1649 12.5803 21.1568 12.5773 21.1494C12.5744 21.1419 12.5699 21.1351 12.5641 21.1295C12.5584 21.1239 12.5515 21.1195 12.5439 21.1168C12.0589 20.9312 11.5894 20.7075 11.1398 20.4478C11.1316 20.443 11.1248 20.4362 11.1198 20.4282C11.1149 20.4201 11.112 20.4109 11.1114 20.4014C11.1109 20.392 11.1127 20.3825 11.1166 20.3739C11.1206 20.3653 11.1266 20.3578 11.1341 20.3521C11.2287 20.2814 11.3217 20.2086 11.413 20.1336C11.421 20.127 11.4307 20.1228 11.4409 20.1214C11.4512 20.12 11.4617 20.1215 11.4711 20.1258C14.4169 21.4702 17.6062 21.4702 20.5171 20.1258C20.5266 20.1213 20.5372 20.1195 20.5476 20.1208C20.558 20.1221 20.5679 20.1263 20.576 20.1329C20.6674 20.2083 20.7606 20.2813 20.8555 20.3521C20.8631 20.3578 20.8692 20.3652 20.8732 20.3738C20.8772 20.3824 20.8791 20.3918 20.8786 20.4013C20.8781 20.4107 20.8753 20.4199 20.8704 20.428C20.8655 20.4361 20.8587 20.4429 20.8506 20.4478C20.402 20.7097 19.932 20.9332 19.4458 21.116C19.4382 21.1189 19.4314 21.1234 19.4257 21.1291C19.4199 21.1348 19.4155 21.1416 19.4126 21.1492C19.4097 21.1567 19.4084 21.1648 19.4089 21.1728C19.4093 21.1809 19.4115 21.1888 19.4152 21.196C19.6845 21.7159 19.9916 22.2153 20.334 22.6903C20.3409 22.7001 20.3508 22.7074 20.3621 22.7112C20.3734 22.7151 20.3857 22.7153 20.3971 22.7117C22.016 22.2164 23.5385 21.4484 24.899 20.4407C24.9057 20.4359 24.9112 20.4297 24.9152 20.4226C24.9193 20.4154 24.9217 20.4075 24.9225 20.3994C25.2979 16.5182 24.2939 13.1469 22.2612 10.1583ZM13.015 18.3545C12.1281 18.3545 11.3974 17.5407 11.3974 16.5411C11.3974 15.5415 12.114 14.7276 13.015 14.7276C13.9232 14.7276 14.6469 15.5486 14.6327 16.541C14.6327 17.5406 13.9161 18.3545 13.015 18.3545ZM18.9961 18.3545C18.1092 18.3545 17.3784 17.5407 17.3784 16.5411C17.3784 15.5415 18.095 14.7276 18.9961 14.7276C19.9043 14.7276 20.6279 15.5486 20.6138 16.541C20.6138 17.5406 19.9043 18.3545 18.9961 18.3545Z" fill="currentColor"/>
</svg>
