<svg width="32" height="32" viewBox="0 0 32 32" fill="none" xmlns="http://www.w3.org/2000/svg">
  <g clip-path="url(#clip0_1897_3960)">
    <path fill-rule="evenodd" clip-rule="evenodd"
      d="M16.2727 8C16.6744 8 17 8.32561 17 8.72727V10.9091C17 12.1141 17.9768 13.0909 19.1818 13.0909H21.3636C21.7653 13.0909 22.0909 13.4165 22.0909 13.8182V21.8182C22.0909 23.0232 21.1141 24 19.9091 24H11.1818C9.97683 24 9 23.0232 9 21.8182V10.1818C9 8.97683 9.97683 8 11.1818 8H16.2727ZM13.3636 16C12.962 16 12.6364 16.3256 12.6364 16.7273C12.6364 17.1289 12.962 17.4545 13.3636 17.4545H17.7273C18.1289 17.4545 18.4545 17.1289 18.4545 16.7273C18.4545 16.3256 18.1289 16 17.7273 16H13.3636ZM13.3636 18.9091C12.962 18.9091 12.6364 19.2347 12.6364 19.6364C12.6364 20.038 12.962 20.3636 13.3636 20.3636H15.5455C15.9471 20.3636 16.2727 20.038 16.2727 19.6364C16.2727 19.2347 15.9471 18.9091 15.5455 18.9091H13.3636ZM18.4542 8.72735C18.4542 8.32569 18.7947 7.97385 19.1651 8.12918C19.3255 8.19642 19.4745 8.29305 19.6075 8.4261L21.6646 10.4831C21.7976 10.6162 21.8943 10.7652 21.9615 10.9256C22.1168 11.296 21.765 11.6364 21.3633 11.6364H19.1815C18.7799 11.6364 18.4542 11.3108 18.4542 10.9092V8.72735Z"
      fill="currentColor" />
  </g>
  <defs>
    <clipPath id="clip0_1897_3960">
      <rect width="32" height="32" fill="white" />
    </clipPath>
  </defs>
</svg>