<svg width="24" height="24" viewBox="0 0 32 32" fill="none" xmlns="http://www.w3.org/2000/svg">
<path d="M10.6667 8C12.7884 8 14.8232 8.84285 16.3235 10.3431C17.8238 11.8434 18.6667 13.8783 18.6667 16C18.6667 18.1217 17.8238 20.1566 16.3235 21.6569C14.8232 23.1571 12.7884 24 10.6667 24C8.54492 24 6.51009 23.1571 5.0098 21.6569C3.50951 20.1566 2.66666 18.1217 2.66666 16C2.66666 13.8783 3.50951 11.8434 5.0098 10.3431C6.51009 8.84285 8.54492 8 10.6667 8ZM22.6667 9.33333C24.6667 9.33333 26 12.3187 26 16C26 19.6813 24.6667 22.6667 22.6667 22.6667C20.6667 22.6667 19.3333 19.6813 19.3333 16C19.3333 12.3187 20.6667 9.33333 22.6667 9.33333ZM28 10C28.5067 10 28.9493 11.1027 29.1733 12.9947L29.236 13.5853L29.2613 13.8987L29.3013 14.5573L29.3147 14.9027L29.3307 15.624L29.3333 16L29.3307 16.376L29.3147 17.0973L29.3013 17.444L29.2613 18.1013L29.2347 18.4147L29.1747 19.0053C28.9493 20.8987 28.508 22 28 22C27.4933 22 27.0507 20.8973 26.8267 19.0053L26.764 18.4147C26.7548 18.3103 26.7464 18.2058 26.7387 18.1013L26.6987 17.4427C26.6935 17.3276 26.6891 17.2125 26.6853 17.0973L26.6693 16.376V15.624L26.6853 14.9027L26.6987 14.556L26.7387 13.8987L26.7653 13.5853L26.8253 12.9947C27.0507 11.1013 27.492 10 28 10Z" fill="currentColor"/>
</svg>
